o tris.obj
v -14.640625 -27.921875 -6.828125
v -14.640625 -27.921875 10.437500
v -12.390625 128.093750 7.968750
v -12.390625 128.093750 -6.828125
v -0.031250 128.093750 -14.234375
v -0.031250 -27.921875 -16.703125
v 12.312500 128.093750 -6.828125
v 14.562500 -27.921875 -9.296875
v 12.312500 128.093750 7.968750
v 14.562500 -27.921875 7.968750
v -0.031250 128.093750 15.375000
v -0.031250 -27.921875 17.843750
v -10.140625 235.593750 5.500000
v -10.140625 235.593750 -4.359375
v -0.031250 235.593750 -9.296875
v 10.062500 235.593750 -4.359375
v 10.062500 235.593750 5.500000
v -0.031250 235.593750 12.906250
v -6.765625 329.218750 5.500000
v -6.765625 329.218750 -1.890625
v -0.031250 329.218750 -6.828125
v 7.828125 329.218750 -4.359375
v 7.828125 329.218750 5.500000
v -0.031250 329.218750 7.968750
v -0.031250 410.703125 0.562500
vn -0.951323 0.013720 -0.307892
vn -0.746909 0.018812 0.664660
vn -0.877459 0.023052 0.479097
vn -0.874367 0.020655 -0.484826
vn 0.073977 0.031292 -0.996769
vn -0.234341 0.013484 -0.972061
vn 0.919850 0.024595 -0.391498
vn 0.861297 0.018561 -0.507762
vn 0.839632 0.019772 0.542796
vn 0.883214 0.012737 0.468798
vn -0.103793 0.020258 0.994393
vn 0.234827 0.013486 0.971944
vn -0.932584 0.029013 0.359785
vn -0.820720 0.038048 -0.570062
vn 0.065993 0.031108 -0.997335
vn 0.855596 0.029377 -0.516810
vn 0.932797 0.024693 0.359555
vn -0.006252 0.034569 0.999383
vn -0.845579 0.061386 0.530309
vn -0.890042 0.065535 -0.451143
vn -0.225094 0.055232 -0.972771
vn 0.733172 0.058436 -0.677528
vn 0.837921 0.058972 0.542596
vn -0.023461 0.071587 0.997158
vn -0.539484 0.815353 0.210135
vt 0.911445 0.025893
vt 1.000000 0.025893
vt 1.000000 1.000000
vt 0.911445 1.000000
vt 0.822890 0.025893
vt 0.822890 1.000000
vt 0.734334 0.025893
vt 0.734334 1.000000
vt 0.911569 1.000000
vt 0.911569 0.025893
vt 1.000124 0.025893
vt 1.000124 1.000000
vt 0.823014 0.025893
vt 0.823014 1.000000
vt 0.734459 0.025893
vt 0.734459 1.000000
vt 1.000000 1.708441
vt 0.911445 1.708441
vt 0.822890 1.708441
vt 0.734334 1.708441
vt 0.911569 1.708441
vt 1.000124 1.708441
vt 0.823014 1.708441
vt 0.734459 1.708441
vt 1.000000 2.328327
vt 0.911445 2.328327
vt 0.822890 2.328327
vt 0.734334 2.328327
vt 0.911569 2.328327
vt 1.000124 2.328327
vt 0.823014 2.328327
vt 0.734459 2.328327
vt 0.955834 3.082465
vt 0.869602 3.082465
vt 0.782931 3.082465
vt 0.957956 3.082465
vt 0.865691 3.082465
vt 0.781394 3.082465
g bark
f 1/1/1 2/2/2 3/3/3 
f 4/4/4 1/1/1 3/3/3 
f 6/5/6 1/1/1 4/4/4 
f 4/4/4 5/6/5 6/5/6 
f 8/7/8 6/5/6 5/6/5 
f 5/6/5 7/8/7 8/7/8 
f 9/9/9 10/10/10 8/11/8 
f 7/12/7 9/9/9 8/11/8 
f 12/13/12 10/10/10 9/9/9 
f 9/9/9 11/14/11 12/13/12 
f 2/15/2 12/13/12 11/14/11 
f 3/16/3 2/15/2 11/14/11 
f 4/4/4 3/3/3 13/17/13 
f 14/18/14 4/4/4 13/17/13 
f 5/6/5 4/4/4 14/18/14 
f 14/18/14 15/19/15 5/6/5 
f 16/20/16 7/8/7 5/6/5 
f 15/19/15 16/20/16 5/6/5 
f 17/21/17 9/9/9 7/12/7 
f 16/22/16 17/21/17 7/12/7 
f 18/23/18 11/14/11 9/9/9 
f 17/21/17 18/23/18 9/9/9 
f 3/16/3 11/14/11 18/23/18 
f 13/24/13 3/16/3 18/23/18 
f 14/18/14 13/17/13 19/25/19 
f 20/26/20 14/18/14 19/25/19 
f 21/27/21 15/19/15 14/18/14 
f 20/26/20 21/27/21 14/18/14 
f 22/28/22 16/20/16 15/19/15 
f 21/27/21 22/28/22 15/19/15 
f 23/29/23 17/21/17 16/22/16 
f 22/30/22 23/29/23 16/22/16 
f 18/23/18 17/21/17 23/29/23 
f 23/29/23 24/31/24 18/23/18 
f 18/23/18 24/31/24 19/32/19 
f 19/32/19 13/24/13 18/23/18 
f 20/26/20 19/25/19 25/33/25 
f 25/34/25 21/27/21 20/26/20 
f 25/35/25 22/28/22 21/27/21 
f 25/36/25 23/29/23 22/30/22 
f 25/37/25 24/31/24 23/29/23 
f 19/32/19 24/31/24 25/38/25 
v -53.953125 83.015625 -124.093750
v -0.031250 237.328125 -0.656250
v -4.515625 91.687500 -122.859375
v 52.765625 102.093750 -126.562500
v 113.437500 107.296875 -110.515625
v 149.390625 105.562500 -56.203125
v 147.140625 91.687500 4.265625
v 106.703125 88.218750 49.937500
v 97.703125 84.750000 96.843750
v 59.500000 86.484375 142.515625
v -1.156250 95.156250 156.093750
v -50.593750 109.031250 112.890625
v -115.750000 109.031250 106.718750
v -121.375000 96.890625 49.937500
v -132.609375 89.953125 -4.359375
v -124.750000 91.687500 -57.437500
v -97.781250 88.218750 -93.234375
v -84.296875 150.640625 64.750000
v -0.031250 278.937500 -0.656250
v -93.281250 157.578125 27.718750
v -107.890625 167.984375 -15.468750
v -107.890625 171.453125 -67.312500
v -73.062500 169.718750 -104.343750
v -25.875000 157.578125 -114.218750
v 16.812500 155.843750 -93.234375
v 56.140625 152.375000 -95.703125
v 98.828125 154.109375 -75.953125
v 121.296875 161.046875 -30.281250
v 97.703125 173.171875 15.375000
v 106.703125 171.453125 65.984375
v 64.000000 162.781250 83.265625
v 23.546875 155.843750 103.015625
v -19.125000 157.578125 106.718750
v -51.718750 155.843750 93.140625
v 47.140625 209.593750 72.156250
v 1.078125 313.609375 -1.890625
v 15.687500 216.531250 74.625000
v -20.250000 221.718750 84.500000
v -59.578125 225.187500 80.796875
v -88.796875 223.453125 49.937500
v -93.281250 216.531250 10.437500
v -71.937500 214.796875 -22.875000
v -70.812500 209.593750 -53.734375
v -52.843750 211.328125 -87.062500
v -13.515625 218.250000 -100.640625
v 21.296875 226.921875 -78.421875
v 62.875000 226.921875 -80.890625
v 72.984375 219.984375 -46.328125
v 85.343750 214.796875 -13.000000
v 85.343750 216.531250 21.546875
v 72.984375 214.796875 47.468750
v 67.375000 251.203125 16.609375
v 2.203125 356.953125 -0.656250
v 51.640625 258.140625 35.125000
v 34.781250 265.062500 59.812500
v 10.062500 266.796875 79.562500
v -23.625000 266.796875 75.859375
v -47.218750 258.140625 56.109375
v -52.843750 256.406250 26.484375
v -68.562500 252.937500 7.968750
v -74.187500 252.937500 -21.640625
v -60.703125 259.875000 -50.031250
v -28.125000 268.531250 -56.203125
v -5.640625 268.531250 -79.656250
v 17.937500 261.609375 -64.843750
v 44.906250 256.406250 -52.500000
v 62.875000 258.140625 -32.750000
v 68.500000 256.406250 -10.531250
v 47.140625 292.812500 -38.921875
v 3.328125 379.500000 -0.656250
v 52.765625 298.015625 -19.171875
v 62.875000 304.953125 4.265625
v 65.125000 308.406250 32.656250
v 46.015625 306.687500 53.640625
v 20.187500 298.015625 62.281250
v -3.406250 296.281250 51.171875
v -24.750000 294.546875 53.640625
v -49.468750 294.546875 43.765625
v -62.953125 301.484375 19.078125
v -51.718750 308.406250 -6.828125
v -58.453125 308.406250 -35.218750
v -34.859375 301.484375 -45.093750
v -13.515625 298.015625 -56.203125
v 10.062500 299.750000 -59.906250
v 28.046875 298.015625 -53.734375
v -41.593750 329.218750 -22.875000
v -0.031250 414.171875 -1.890625
v -28.125000 334.421875 -33.984375
v -13.515625 339.625000 -46.328125
v 6.703125 343.093750 -56.203125
v 28.046875 341.359375 -48.796875
v 41.531250 334.421875 -32.750000
v 40.406250 332.687500 -11.765625
v 48.265625 330.953125 4.265625
v 48.265625 330.953125 24.015625
v 33.656250 336.156250 41.296875
v 11.187500 343.093750 41.296875
v -6.765625 343.093750 52.406250
v -21.375000 336.156250 40.062500
v -37.109375 334.421875 27.718750
v -46.093750 334.421875 10.437500
v -47.218750 332.687500 -4.359375
v -134.859375 37.937500 21.546875
v -1.156250 192.250000 -0.656250
v -121.375000 48.343750 -25.343750
v -111.265625 57.015625 -82.125000
v -80.921875 62.218750 -137.671875
v -19.125000 60.484375 -158.656250
v 38.156250 48.343750 -142.609375
v 72.984375 44.875000 -92.000000
v 116.812500 39.671875 -72.250000
v 151.640625 41.406250 -24.109375
v 150.515625 51.812500 37.593750
v 96.578125 65.687500 74.625000
v 75.234375 63.953125 137.578125
v 17.937500 53.546875 128.937500
v -38.234375 46.609375 127.703125
v -87.671875 48.343750 105.484375
v -115.750000 44.875000 72.156250
vn -0.240380 0.656176 -0.715297
vn -0.031365 0.998927 -0.034069
vn -0.129060 0.639729 -0.757687
vn -0.019787 0.677131 -0.735596
vn 0.350914 0.763848 -0.541659
vn 0.642644 0.762077 -0.079041
vn 0.644653 0.664221 0.378460
vn 0.685294 0.620115 0.381875
vn 0.683731 0.649962 0.331754
vn 0.423565 0.705946 0.567655
vn -0.054981 0.739787 0.670591
vn -0.213808 0.693323 0.688178
vn -0.492084 0.775265 0.396003
vn -0.755990 0.654573 0.003794
vn -0.743288 0.668902 -0.009619
vn -0.666098 0.685244 -0.294541
vn -0.474486 0.667409 -0.573958
vn -0.649368 0.637715 0.414295
vn -0.022643 0.998936 0.040174
vn -0.706664 0.621888 0.337463
vn -0.714251 0.665341 0.217178
vn -0.616639 0.755671 -0.220721
vn -0.228552 0.746303 -0.625136
vn 0.202118 0.645868 -0.736208
vn 0.192773 0.606509 -0.771353
vn 0.151108 0.635617 -0.757072
vn 0.452042 0.695157 -0.558941
vn 0.678514 0.726168 -0.110904
vn 0.730993 0.681304 0.038391
vn 0.531759 0.759879 0.373920
vn 0.206904 0.645336 0.735345
vn 0.166136 0.653658 0.738330
vn -0.116581 0.668345 0.734659
vn -0.445315 0.653437 0.612139
vn 0.331586 0.640168 0.692990
vn 0.037446 0.998936 0.026902
vn 0.243815 0.622707 0.743499
vn 0.142628 0.660190 0.737432
vn -0.266212 0.749467 0.606160
vn -0.632382 0.747432 0.203565
vn -0.709390 0.657174 -0.254732
vn -0.736119 0.607376 -0.298702
vn -0.740588 0.629296 -0.235618
vn -0.527551 0.690367 -0.495059
vn -0.035452 0.721509 -0.691497
vn 0.115320 0.672392 -0.731157
vn 0.423214 0.756322 -0.498865
vn 0.753811 0.643057 -0.135078
vn 0.751080 0.652105 -0.103142
vn 0.724373 0.668984 0.166566
vn 0.567064 0.659289 0.493736
vn 0.793984 0.536119 0.286647
vn 0.058699 0.998241 -0.008337
vn 0.751419 0.522063 0.403509
vn 0.657219 0.562856 0.501254
vn 0.235452 0.657421 0.715794
vn -0.374803 0.659977 0.651117
vn -0.760894 0.564442 0.320073
vn -0.791685 0.519992 0.320692
vn -0.767348 0.549464 0.330555
vn -0.802565 0.595741 -0.031352
vn -0.569650 0.634706 -0.522157
vn -0.454084 0.580399 -0.675977
vn -0.023504 0.667234 -0.744477
vn 0.496690 0.539617 -0.679789
vn 0.514677 0.555384 -0.653190
vn 0.724835 0.570493 -0.386203
vn 0.834184 0.551327 -0.013207
vn 0.685298 0.554670 -0.471920
vn 0.030218 0.998292 -0.050001
vn 0.734551 0.539251 -0.411877
vn 0.753993 0.582192 -0.304215
vn 0.689004 0.695083 0.205261
vn 0.292588 0.675929 0.676397
vn -0.175846 0.578708 0.796351
vn -0.175511 0.530640 0.829227
vn -0.125200 0.563350 0.816677
vn -0.455986 0.618178 0.640259
vn -0.727794 0.662837 0.175964
vn -0.790987 0.611785 0.007655
vn -0.594227 0.704785 -0.387521
vn -0.240355 0.566588 -0.788167
vn -0.234760 0.580187 -0.779917
vn 0.074985 0.598764 -0.797408
vn 0.462514 0.578154 -0.672174
vn -0.744491 0.479090 -0.464979
vn -0.062883 0.998007 -0.005331
vn -0.662169 0.468592 -0.584768
vn -0.558547 0.496929 -0.664143
vn -0.075451 0.600904 -0.795752
vn 0.547564 0.592068 -0.591294
vn 0.848813 0.504071 -0.159462
vn 0.880402 0.453653 -0.138167
vn 0.856536 0.483810 -0.179651
vn 0.810839 0.540481 0.224547
vn 0.465523 0.573955 0.673694
vn 0.311261 0.528872 0.789564
vn -0.144853 0.609276 0.779616
vn -0.629267 0.494556 0.599531
vn -0.675182 0.511314 0.531683
vn -0.832987 0.513118 0.206983
vn -0.851005 0.497877 -0.167060
vn -0.750620 0.658383 0.055688
vn -0.039211 0.999071 0.017903
vn -0.761473 0.645762 -0.056136
vn -0.713851 0.680595 -0.164949
vn -0.436843 0.765598 -0.472258
vn 0.071328 0.762024 -0.643609
vn 0.512150 0.670009 -0.537392
vn 0.539963 0.622659 -0.566335
vn 0.493058 0.651672 -0.576383
vn 0.651049 0.703709 -0.284479
vn 0.636888 0.743437 0.204143
vn 0.610307 0.696148 0.378026
vn 0.268683 0.775522 0.571292
vn -0.163567 0.661395 0.731985
vn -0.192016 0.675952 0.711491
vn -0.448767 0.689293 0.568756
vn -0.669397 0.674423 0.311545
vt 0.039063 0.289063
vt 0.355469 0.472656
vt 0.000000 0.464844
vt 0.035156 0.648438
vt 0.101563 0.828125
vt 0.222656 0.937500
vt 0.371094 1.000000
vt 0.511719 0.933594
vt 0.613281 0.828125
vt 0.675781 0.667969
vt 0.718750 0.468750
vt 0.703125 0.308594
vt 0.621094 0.128906
vt 0.488281 0.046875
vt 0.343750 0.007813
vt 0.207031 0.035156
vt 0.113281 0.132813
vt 0.039063 0.289063
vt 0.355469 0.472656
vt 0.000000 0.464844
vt 0.035156 0.648438
vt 0.101563 0.828125
vt 0.222656 0.937500
vt 0.371094 1.000000
vt 0.511719 0.933594
vt 0.613281 0.828125
vt 0.675781 0.667969
vt 0.718750 0.468750
vt 0.703125 0.308594
vt 0.621094 0.128906
vt 0.488281 0.046875
vt 0.343750 0.007813
vt 0.207031 0.035156
vt 0.113281 0.132813
vt 0.039063 0.289063
vt 0.355469 0.472656
vt 0.000000 0.464844
vt 0.035156 0.648438
vt 0.101563 0.828125
vt 0.222656 0.937500
vt 0.371094 1.000000
vt 0.511719 0.933594
vt 0.613281 0.828125
vt 0.675781 0.667969
vt 0.718750 0.468750
vt 0.703125 0.308594
vt 0.621094 0.128906
vt 0.488281 0.046875
vt 0.343750 0.007813
vt 0.207031 0.035156
vt 0.113281 0.132813
vt 0.039063 0.289063
vt 0.355469 0.472656
vt 0.000000 0.464844
vt 0.035156 0.648438
vt 0.101563 0.828125
vt 0.222656 0.937500
vt 0.371094 1.000000
vt 0.511719 0.933594
vt 0.613281 0.828125
vt 0.675781 0.667969
vt 0.718750 0.468750
vt 0.703125 0.308594
vt 0.621094 0.128906
vt 0.488281 0.046875
vt 0.343750 0.007813
vt 0.207031 0.035156
vt 0.113281 0.132813
vt 0.039063 0.289063
vt 0.355469 0.472656
vt 0.000000 0.464844
vt 0.035156 0.648438
vt 0.101563 0.828125
vt 0.222656 0.937500
vt 0.371094 1.000000
vt 0.511719 0.933594
vt 0.613281 0.828125
vt 0.675781 0.667969
vt 0.718750 0.468750
vt 0.703125 0.308594
vt 0.621094 0.128906
vt 0.488281 0.046875
vt 0.343750 0.007813
vt 0.207031 0.035156
vt 0.113281 0.132813
vt 0.039063 0.289063
vt 0.355469 0.472656
vt 0.000000 0.464844
vt 0.035156 0.648438
vt 0.101563 0.828125
vt 0.222656 0.937500
vt 0.371094 1.000000
vt 0.511719 0.933594
vt 0.613281 0.828125
vt 0.675781 0.667969
vt 0.718750 0.468750
vt 0.703125 0.308594
vt 0.621094 0.128906
vt 0.488281 0.046875
vt 0.343750 0.007813
vt 0.207031 0.035156
vt 0.113281 0.132813
vt 0.039063 0.289063
vt 0.355469 0.472656
vt 0.000000 0.464844
vt 0.035156 0.648438
vt 0.101563 0.828125
vt 0.222656 0.937500
vt 0.371094 1.000000
vt 0.511719 0.933594
vt 0.613281 0.828125
vt 0.675781 0.667969
vt 0.718750 0.468750
vt 0.703125 0.308594
vt 0.621094 0.128906
vt 0.488281 0.046875
vt 0.343750 0.007813
vt 0.207031 0.035156
vt 0.113281 0.132813
g leaves
f 26/39/26 27/40/27 28/41/28 
f 27/40/27 29/42/29 28/41/28 
f 29/42/29 27/40/27 30/43/30 
f 27/40/27 31/44/31 30/43/30 
f 31/44/31 27/40/27 32/45/32 
f 27/40/27 33/46/33 32/45/32 
f 33/46/33 27/40/27 34/47/34 
f 27/40/27 35/48/35 34/47/34 
f 35/48/35 27/40/27 36/49/36 
f 27/40/27 37/50/37 36/49/36 
f 37/50/37 27/40/27 38/51/38 
f 27/40/27 39/52/39 38/51/38 
f 39/52/39 27/40/27 40/53/40 
f 27/40/27 41/54/41 40/53/40 
f 41/54/41 27/40/27 42/55/42 
f 27/40/27 26/39/26 42/55/42 
f 43/56/43 44/57/44 45/58/45 
f 44/57/44 46/59/46 45/58/45 
f 46/59/46 44/57/44 47/60/47 
f 44/57/44 48/61/48 47/60/47 
f 48/61/48 44/57/44 49/62/49 
f 44/57/44 50/63/50 49/62/49 
f 50/63/50 44/57/44 51/64/51 
f 44/57/44 52/65/52 51/64/51 
f 52/65/52 44/57/44 53/66/53 
f 44/57/44 54/67/54 53/66/53 
f 54/67/54 44/57/44 55/68/55 
f 44/57/44 56/69/56 55/68/55 
f 56/69/56 44/57/44 57/70/57 
f 44/57/44 58/71/58 57/70/57 
f 58/71/58 44/57/44 59/72/59 
f 44/57/44 43/56/43 59/72/59 
f 60/73/60 61/74/61 62/75/62 
f 61/74/61 63/76/63 62/75/62 
f 63/76/63 61/74/61 64/77/64 
f 61/74/61 65/78/65 64/77/64 
f 65/78/65 61/74/61 66/79/66 
f 61/74/61 67/80/67 66/79/66 
f 67/80/67 61/74/61 68/81/68 
f 61/74/61 69/82/69 68/81/68 
f 69/82/69 61/74/61 70/83/70 
f 61/74/61 71/84/71 70/83/70 
f 71/84/71 61/74/61 72/85/72 
f 61/74/61 73/86/73 72/85/72 
f 73/86/73 61/74/61 74/87/74 
f 61/74/61 75/88/75 74/87/74 
f 75/88/75 61/74/61 76/89/76 
f 61/74/61 60/73/60 76/89/76 
f 77/90/77 78/91/78 79/92/79 
f 78/91/78 80/93/80 79/92/79 
f 80/93/80 78/91/78 81/94/81 
f 78/91/78 82/95/82 81/94/81 
f 82/95/82 78/91/78 83/96/83 
f 78/91/78 84/97/84 83/96/83 
f 84/97/84 78/91/78 85/98/85 
f 78/91/78 86/99/86 85/98/85 
f 86/99/86 78/91/78 87/100/87 
f 78/91/78 88/101/88 87/100/87 
f 88/101/88 78/91/78 89/102/89 
f 78/91/78 90/103/90 89/102/89 
f 90/103/90 78/91/78 91/104/91 
f 78/91/78 92/105/92 91/104/91 
f 92/105/92 78/91/78 93/106/93 
f 78/91/78 77/90/77 93/106/93 
f 94/107/94 95/108/95 96/109/96 
f 95/108/95 97/110/97 96/109/96 
f 97/110/97 95/108/95 98/111/98 
f 95/108/95 99/112/99 98/111/98 
f 99/112/99 95/108/95 100/113/100 
f 95/108/95 101/114/101 100/113/100 
f 101/114/101 95/108/95 102/115/102 
f 95/108/95 103/116/103 102/115/102 
f 103/116/103 95/108/95 104/117/104 
f 95/108/95 105/118/105 104/117/104 
f 105/118/105 95/108/95 106/119/106 
f 95/108/95 107/120/107 106/119/106 
f 107/120/107 95/108/95 108/121/108 
f 95/108/95 109/122/109 108/121/108 
f 109/122/109 95/108/95 110/123/110 
f 95/108/95 94/107/94 110/123/110 
f 111/124/111 112/125/112 113/126/113 
f 112/125/112 114/127/114 113/126/113 
f 114/127/114 112/125/112 115/128/115 
f 112/125/112 116/129/116 115/128/115 
f 116/129/116 112/125/112 117/130/117 
f 112/125/112 118/131/118 117/130/117 
f 118/131/118 112/125/112 119/132/119 
f 112/125/112 120/133/120 119/132/119 
f 120/133/120 112/125/112 121/134/121 
f 112/125/112 122/135/122 121/134/121 
f 122/135/122 112/125/112 123/136/123 
f 112/125/112 124/137/124 123/136/123 
f 124/137/124 112/125/112 125/138/125 
f 112/125/112 126/139/126 125/138/125 
f 126/139/126 112/125/112 127/140/127 
f 112/125/112 111/124/111 127/140/127 
f 128/141/128 129/142/129 130/143/130 
f 129/142/129 131/144/131 130/143/130 
f 131/144/131 129/142/129 132/145/132 
f 129/142/129 133/146/133 132/145/132 
f 133/146/133 129/142/129 134/147/134 
f 129/142/129 135/148/135 134/147/134 
f 135/148/135 129/142/129 136/149/136 
f 129/142/129 137/150/137 136/149/136 
f 137/150/137 129/142/129 138/151/138 
f 129/142/129 139/152/139 138/151/138 
f 139/152/139 129/142/129 140/153/140 
f 129/142/129 141/154/141 140/153/140 
f 141/154/141 129/142/129 142/155/142 
f 129/142/129 143/156/143 142/155/142 
f 143/156/143 129/142/129 144/157/144 
f 129/142/129 128/141/128 144/157/144 
