o tris.obj
v 20.681427 419.391052 306.526886
v 20.681427 33.357254 327.631042
v 20.681427 36.164459 285.134125
v 20.681427 -41.786667 327.631042
v 20.681427 -41.786667 285.134125
v 20.681427 311.173523 371.363831
v 20.681427 33.357254 437.029785
v 20.681427 307.627563 237.799225
v 20.681427 36.164459 155.848114
v 20.681427 85.151276 444.778381
v 20.681427 88.697243 153.615448
v 20.681427 210.835938 215.472809
v 20.681427 157.252518 183.427795
v 20.681427 172.080704 305.697845
v 20.681427 162.374451 418.774658
v 20.681427 122.055550 412.076721
v 20.681427 220.488831 399.994202
v 20.681427 242.421265 379.769104
vn 1.000000 0.000000 0.000000
vn 1.000000 0.000000 0.000000
vn 1.000000 0.000000 0.000000
vn 1.000000 0.000000 0.000000
vn 1.000000 0.000000 0.000000
vn 1.000000 0.000000 0.000000
vn 1.000000 0.000000 0.000000
vn 1.000000 0.000000 0.000000
vn 1.000000 0.000000 0.000000
vn 1.000000 0.000000 0.000000
vn 1.000000 0.000000 0.000000
vn 1.000000 0.000000 0.000000
vn 1.000000 0.000000 0.000000
vn 1.000000 0.000000 0.000000
vn 1.000000 0.000000 0.000000
vn 1.000000 0.000000 0.000000
vn 1.000000 0.000000 0.000000
vn 1.000000 0.000000 0.000000
vt 0.201874 0.123047
vt 0.016042 0.205208
vt 0.028333 0.123047
vt 0.269287 0.127500
vt 0.474375 0.127500
vt 0.477917 0.210833
vt 0.269287 0.003845
vt 0.201874 0.003845
vt 0.344375 0.558125
vt 0.235352 0.735417
vt 0.132500 0.563750
vt 0.236667 0.343105
vt 0.430625 0.319583
vt 0.379792 0.404583
vt 0.057292 0.327708
vt 0.067917 0.263750
vt 0.119167 0.454688
vt 0.087083 0.419896
g A
f 2/1/2 10/2/10 7/3/7 
f 3/4/3 9/5/9 11/6/11 
f 5/7/5 3/4/3 2/1/2 
f 5/7/5 2/1/2 4/8/4 
f 8/9/8 1/10/1 6/11/6 
f 14/12/14 3/4/3 11/6/11 
f 11/6/11 13/13/13 14/12/14 
f 13/13/13 12/14/12 14/12/14 
f 2/1/2 3/4/3 14/12/14 
f 12/14/12 8/9/8 14/12/14 
f 8/9/8 6/11/6 14/12/14 
f 15/15/15 16/16/16 14/12/14 
f 14/12/14 6/11/6 18/17/18 
f 14/12/14 18/17/18 17/18/17 
f 14/12/14 17/18/17 15/15/15 
f 16/16/16 10/2/10 2/1/2 
f 16/16/16 2/1/2 14/12/14 
v 44.964050 419.391296 -90.468216
v 44.964050 33.357498 -111.572403
v 44.964050 36.164703 -69.075485
v 44.964050 -41.786423 -111.572403
v 44.964050 -41.786423 -69.075485
v 44.964050 311.173767 -155.305145
v 44.964050 33.357498 -220.971130
v 44.964050 307.627808 -21.740585
v 44.964050 36.164703 60.210526
v 44.964050 85.151520 -228.719696
v 44.964050 88.697487 62.443192
v 44.964050 210.836182 0.585860
v 44.964050 157.252762 32.630844
v 44.964050 172.080948 -89.639206
v 44.964050 162.374695 -202.715973
v 44.964050 122.055794 -196.018066
v 44.964050 220.489075 -183.935516
v 44.964050 242.421509 -163.710388
vn 1.000000 0.000000 0.000000
vn 1.000000 0.000000 0.000000
vn 1.000000 0.000000 0.000000
vn 1.000000 0.000000 0.000000
vn 1.000000 0.000000 0.000000
vn 1.000000 0.000000 0.000000
vn 1.000000 0.000000 0.000000
vn 1.000000 0.000000 0.000000
vn 1.000000 0.000000 0.000000
vn 1.000000 0.000000 0.000000
vn 1.000000 0.000000 0.000000
vn 1.000000 0.000000 0.000000
vn 1.000000 0.000000 0.000000
vn 1.000000 0.000000 0.000000
vn 1.000000 0.000000 0.000000
vn 1.000000 0.000000 0.000000
vn 1.000000 0.000000 0.000000
vn 1.000000 0.000000 0.000000
vt 0.971667 0.123047
vt 0.983958 0.205208
vt 0.798126 0.123047
vt 0.522083 0.210833
vt 0.525625 0.127500
vt 0.730713 0.127500
vt 0.730713 0.003845
vt 0.798126 0.003845
vt 0.867500 0.563750
vt 0.764648 0.735417
vt 0.655625 0.558125
vt 0.763333 0.343105
vt 0.569375 0.319583
vt 0.620208 0.404583
vt 0.932083 0.263750
vt 0.942708 0.327708
vt 0.880833 0.454688
vt 0.912917 0.419896
g A_F
f 25/19/25 28/20/28 20/21/20 
f 29/22/29 27/23/27 21/24/21 
f 20/21/20 21/24/21 23/25/23 
f 22/26/22 20/21/20 23/25/23 
f 24/27/24 19/28/19 26/29/26 
f 29/22/29 21/24/21 32/30/32 
f 32/30/32 31/31/31 29/22/29 
f 32/30/32 30/32/30 31/31/31 
f 32/30/32 21/24/21 20/21/20 
f 32/30/32 26/29/26 30/32/30 
f 32/30/32 24/27/24 26/29/26 
f 32/30/32 34/33/34 33/34/33 
f 36/35/36 24/27/24 32/30/32 
f 35/36/35 36/35/36 32/30/32 
f 33/34/33 35/36/35 32/30/32 
f 20/21/20 28/20/28 34/33/34 
f 32/30/32 20/21/20 34/33/34 
v -78.835236 417.421204 129.062134
v -78.835236 33.357376 151.389313
v -78.835236 33.275284 108.892426
v -78.835236 -41.786545 151.389313
v -78.835236 -41.786545 108.892426
v -78.835236 343.481323 181.594910
v -78.835236 33.357376 256.848083
v -78.835236 337.308716 73.902710
v -78.835236 33.275284 -3.583130
v -78.835236 86.858719 279.174530
v -78.835236 56.521042 -13.827026
v -78.835236 287.665253 71.670074
v -78.835236 213.200043 32.927124
v -78.835236 142.937454 129.456116
v -78.835236 153.575348 233.996338
v -78.835236 131.511566 234.653015
v -78.835236 176.295761 213.902557
v -78.835236 265.995483 207.467285
v -78.835236 183.125031 45.009674
v -78.835236 156.333313 21.632599
v -78.835236 119.560371 27.542542
vn 1.000000 0.000000 0.000000
vn 1.000000 0.000000 0.000000
vn 1.000000 0.000000 0.000000
vn 1.000000 0.000000 0.000000
vn 1.000000 0.000000 0.000000
vn 1.000000 0.000000 0.000000
vn 1.000000 0.000000 0.000000
vn 1.000000 0.000000 0.000000
vn 1.000000 0.000000 0.000000
vn 1.000000 0.000000 0.000000
vn 1.000000 0.000000 0.000000
vn 1.000000 0.000000 0.000000
vn 1.000000 0.000000 0.000000
vn 1.000000 0.000000 0.000000
vn 1.000000 0.000000 0.000000
vn 1.000000 0.000000 0.000000
vn 1.000000 0.000000 0.000000
vn 1.000000 0.000000 0.000000
vn 1.000000 0.000000 0.000000
vn 1.000000 0.000000 0.000000
vn 1.000000 0.000000 0.000000
vt 0.706411 0.953989
vt 0.539121 0.953989
vt 0.671203 0.807286
vt 0.471707 0.954111
vt 0.293286 0.954111
vt 0.277036 0.919368
vt 0.471707 1.066299
vt 0.539121 1.066299
vt 0.416203 0.499701
vt 0.503703 0.379964
vt 0.587036 0.490475
vt 0.342661 0.825149
vt 0.412661 0.573898
vt 0.504328 0.790209
vt 0.370370 0.730145
vt 0.628078 0.606286
vt 0.670161 0.774310
vt 0.638286 0.740352
vt 0.741828 0.874025
vt 0.351203 0.685194
vt 0.333286 0.770188
g B
f 43/37/43 38/38/38 52/39/52 
f 39/40/39 45/41/45 47/42/47 
f 41/43/41 39/40/39 38/38/38 
f 41/43/41 38/38/38 40/44/40 
f 44/45/44 37/46/37 42/47/42 
f 39/40/39 47/42/47 57/48/57 
f 48/49/48 50/50/50 55/51/55 
f 38/38/38 39/40/39 50/50/50 
f 48/49/48 44/45/44 42/47/42 
f 48/49/48 42/47/42 54/52/54 
f 51/53/51 52/39/52 50/50/50 
f 54/52/54 50/50/50 48/49/48 
f 50/50/50 54/52/54 53/54/53 
f 50/50/50 53/54/53 51/53/51 
f 52/39/52 46/55/46 43/37/43 
f 52/39/52 38/38/38 50/50/50 
f 55/51/55 49/56/49 48/49/48 
f 57/48/57 50/50/50 39/40/39 
f 55/51/55 50/50/50 57/48/57 
f 57/48/57 56/57/56 55/51/55 
v -39.023499 417.421204 -305.069733
v -39.023499 33.357376 -327.396942
v -39.023499 33.275284 -284.900024
v -39.023499 -41.786545 -327.396942
v -39.023499 -41.786545 -284.900024
v -39.023499 343.481323 -357.602509
v -39.023499 33.357376 -432.855682
v -39.023499 337.308716 -249.910339
v -39.023499 33.275284 -172.424530
v -39.023499 86.858719 -455.182098
v -39.023499 56.521042 -162.180634
v -39.023499 287.665253 -247.677704
v -39.023499 213.200043 -208.934814
v -39.023499 142.937454 -305.463745
v -39.023499 153.575348 -410.003937
v -39.023499 131.511566 -410.660614
v -39.023499 176.295761 -389.910187
v -39.023499 265.995483 -383.474884
v -39.023499 183.125031 -221.017303
v -39.023499 156.333313 -197.640259
v -39.023499 119.560371 -203.550201
vn 1.000000 0.000000 0.000000
vn 1.000000 0.000000 0.000000
vn 1.000000 0.000000 0.000000
vn 1.000000 0.000000 0.000000
vn 1.000000 0.000000 0.000000
vn 1.000000 0.000000 0.000000
vn 1.000000 0.000000 0.000000
vn 1.000000 0.000000 0.000000
vn 1.000000 0.000000 0.000000
vn 1.000000 0.000000 0.000000
vn 1.000000 0.000000 0.000000
vn 1.000000 0.000000 0.000000
vn 1.000000 0.000000 0.000000
vn 1.000000 0.000000 0.000000
vn 1.000000 0.000000 0.000000
vn 1.000000 0.000000 0.000000
vn 1.000000 0.000000 0.000000
vn 1.000000 0.000000 0.000000
vn 1.000000 0.000000 0.000000
vn 1.000000 0.000000 0.000000
vn 1.000000 0.000000 0.000000
vt 0.835719 0.800790
vt 0.967801 0.947492
vt 0.800510 0.947492
vt 1.229885 0.912872
vt 1.213635 0.947615
vt 1.035214 0.947615
vt 1.035214 1.059803
vt 0.967801 1.059803
vt 0.919885 0.483979
vt 1.003219 0.373468
vt 1.090719 0.493204
vt 1.164260 0.818653
vt 1.136552 0.723649
vt 1.002594 0.783713
vt 1.094260 0.567402
vt 0.878844 0.599790
vt 0.836760 0.767814
vt 0.868635 0.733856
vt 0.765093 0.867529
vt 1.155719 0.678698
vt 1.173635 0.763692
g B_F
f 73/58/73 59/59/59 64/60/64 
f 68/61/68 66/62/66 60/63/60 
f 59/59/59 60/63/60 62/64/62 
f 61/65/61 59/59/59 62/64/62 
f 63/66/63 58/67/58 65/68/65 
f 78/69/78 68/61/68 60/63/60 
f 76/70/76 71/71/71 69/72/69 
f 71/71/71 60/63/60 59/59/59 
f 63/66/63 65/68/65 69/72/69 
f 75/73/75 63/66/63 69/72/69 
f 71/71/71 73/58/73 72/74/72 
f 69/72/69 71/71/71 75/73/75 
f 74/75/74 75/73/75 71/71/71 
f 72/74/72 74/75/74 71/71/71 
f 64/60/64 67/76/67 73/58/73 
f 71/71/71 59/59/59 73/58/73 
f 69/72/69 70/77/70 76/70/76 
f 60/63/60 71/71/71 78/69/78 
f 78/69/78 71/71/71 76/70/76 
f 76/70/76 77/78/77 78/69/78 
v 62.640781 419.391052 -491.199371
v 62.640781 33.357254 -470.095245
v 62.640781 36.164459 -512.592224
v 62.640781 -41.786667 -470.095245
v 62.640781 -41.786667 -512.592224
v 62.640781 311.173523 -426.362457
v 62.640781 33.357254 -360.696503
v 62.640781 307.627563 -559.927063
v 62.640781 36.164459 -641.878235
v 62.640781 85.151276 -352.947906
v 62.640781 88.697243 -644.110901
v 62.640781 210.835938 -582.253479
v 62.640781 157.252518 -614.298523
v 62.640781 172.080704 -492.028473
v 62.640781 162.374451 -378.951630
v 62.640781 122.055550 -385.649567
v 62.640781 220.488831 -397.732086
v 62.640781 242.421265 -417.957184
vn 1.000000 0.000000 0.000000
vn 1.000000 0.000000 0.000000
vn 1.000000 0.000000 0.000000
vn 1.000000 0.000000 0.000000
vn 1.000000 0.000000 0.000000
vn 1.000000 0.000000 0.000000
vn 1.000000 0.000000 0.000000
vn 1.000000 0.000000 0.000000
vn 1.000000 0.000000 0.000000
vn 1.000000 0.000000 0.000000
vn 1.000000 0.000000 0.000000
vn 1.000000 0.000000 0.000000
vn 1.000000 0.000000 0.000000
vn 1.000000 0.000000 0.000000
vn 1.000000 0.000000 0.000000
vn 1.000000 0.000000 0.000000
vn 1.000000 0.000000 0.000000
vn 1.000000 0.000000 0.000000
vt 0.201874 0.123047
vt 0.016042 0.205208
vt 0.028333 0.123047
vt 0.269287 0.127500
vt 0.474375 0.127500
vt 0.477917 0.210833
vt 0.269287 0.003845
vt 0.201874 0.003845
vt 0.344375 0.558125
vt 0.235352 0.735417
vt 0.132500 0.563750
vt 0.236667 0.343105
vt 0.430625 0.319583
vt 0.379792 0.404583
vt 0.057292 0.327708
vt 0.067917 0.263750
vt 0.119167 0.454688
vt 0.087083 0.419896
g A
f 80/79/80 88/80/88 85/81/85 
f 81/82/81 87/83/87 89/84/89 
f 83/85/83 81/82/81 80/79/80 
f 83/85/83 80/79/80 82/86/82 
f 86/87/86 79/88/79 84/89/84 
f 92/90/92 81/82/81 89/84/89 
f 89/84/89 91/91/91 92/90/92 
f 91/91/91 90/92/90 92/90/92 
f 80/79/80 81/82/81 92/90/92 
f 90/92/90 86/87/86 92/90/92 
f 86/87/86 84/89/84 92/90/92 
f 93/93/93 94/94/94 92/90/92 
f 92/90/92 84/89/84 96/95/96 
f 92/90/92 96/95/96 95/96/95 
f 92/90/92 95/96/95 93/93/93 
f 94/94/94 88/80/88 80/79/80 
f 94/94/94 80/79/80 92/90/92 
v 44.964050 419.391296 666.411194
v 44.964050 33.357498 645.306946
v 44.964050 36.164703 687.803894
v 44.964050 -41.786423 645.306946
v 44.964050 -41.786423 687.803894
v 44.964050 311.173767 601.574280
v 44.964050 33.357498 535.908264
v 44.964050 307.627808 735.138794
v 44.964050 36.164703 817.089905
v 44.964050 85.151520 528.159729
v 44.964050 88.697487 819.322571
v 44.964050 210.836182 757.465271
v 44.964050 157.252762 789.510254
v 44.964050 172.080948 667.240173
v 44.964050 162.374695 554.163391
v 44.964050 122.055794 560.861389
v 44.964050 220.489075 572.943909
v 44.964050 242.421509 593.169006
vn 1.000000 0.000000 0.000000
vn 1.000000 0.000000 0.000000
vn 1.000000 0.000000 0.000000
vn 1.000000 0.000000 0.000000
vn 1.000000 0.000000 0.000000
vn 1.000000 0.000000 0.000000
vn 1.000000 0.000000 0.000000
vn 1.000000 0.000000 0.000000
vn 1.000000 0.000000 0.000000
vn 1.000000 0.000000 0.000000
vn 1.000000 0.000000 0.000000
vn 1.000000 0.000000 0.000000
vn 1.000000 0.000000 0.000000
vn 1.000000 0.000000 0.000000
vn 1.000000 0.000000 0.000000
vn 1.000000 0.000000 0.000000
vn 1.000000 0.000000 0.000000
vn 1.000000 0.000000 0.000000
vt 0.971667 0.123047
vt 0.983958 0.205208
vt 0.798126 0.123047
vt 0.522083 0.210833
vt 0.525625 0.127500
vt 0.730713 0.127500
vt 0.730713 0.003845
vt 0.798126 0.003845
vt 0.867500 0.563750
vt 0.764648 0.735417
vt 0.655625 0.558125
vt 0.763333 0.343105
vt 0.569375 0.319583
vt 0.620208 0.404583
vt 0.932083 0.263750
vt 0.942708 0.327708
vt 0.880833 0.454688
vt 0.912917 0.419896
g A_F
f 103/97/103 106/98/106 98/99/98 
f 107/100/107 105/101/105 99/102/99 
f 98/99/98 99/102/99 101/103/101 
f 100/104/100 98/99/98 101/103/101 
f 102/105/102 97/106/97 104/107/104 
f 107/100/107 99/102/99 110/108/110 
f 110/108/110 109/109/109 107/100/107 
f 110/108/110 108/110/108 109/109/109 
f 110/108/110 99/102/99 98/99/98 
f 110/108/110 104/107/104 108/110/108 
f 110/108/110 102/105/102 104/107/104 
f 110/108/110 112/111/112 111/112/111 
f 114/113/114 102/105/102 110/108/110 
f 113/114/113 114/113/114 110/108/110 
f 111/112/111 113/114/113 110/108/110 
f 98/99/98 106/98/106 112/111/112 
f 110/108/110 98/99/98 112/111/112 
v -91.092705 417.421326 -723.314087
v -91.092705 33.357498 -700.986877
v -91.092705 33.275406 -743.483765
v -91.092705 -41.786423 -700.986877
v -91.092705 -41.786423 -743.483765
v -91.092705 343.481445 -670.781311
v -91.092705 33.357498 -595.528137
v -91.092705 337.308838 -778.473511
v -91.092705 33.275406 -855.959351
v -91.092705 86.858841 -573.201721
v -91.092705 56.521164 -866.203247
v -91.092705 287.665375 -780.706116
v -91.092705 213.200165 -819.449097
v -91.092705 142.937576 -722.920105
v -91.092705 153.575470 -618.379883
v -91.092705 131.511688 -617.723206
v -91.092705 176.295883 -638.473694
v -91.092705 265.995605 -644.908936
v -91.092705 183.125153 -807.366516
v -91.092705 156.333435 -830.743591
v -91.092705 119.560493 -824.833679
vn 1.000000 0.000000 0.000000
vn 1.000000 0.000000 0.000000
vn 1.000000 0.000000 0.000000
vn 1.000000 0.000000 0.000000
vn 1.000000 0.000000 0.000000
vn 1.000000 0.000000 0.000000
vn 1.000000 0.000000 0.000000
vn 1.000000 0.000000 0.000000
vn 1.000000 0.000000 0.000000
vn 1.000000 0.000000 0.000000
vn 1.000000 0.000000 0.000000
vn 1.000000 0.000000 0.000000
vn 1.000000 0.000000 0.000000
vn 1.000000 0.000000 0.000000
vn 1.000000 0.000000 0.000000
vn 1.000000 0.000000 0.000000
vn 1.000000 0.000000 0.000000
vn 1.000000 0.000000 0.000000
vn 1.000000 0.000000 0.000000
vn 1.000000 0.000000 0.000000
vn 1.000000 0.000000 0.000000
vt 0.706411 0.953989
vt 0.539121 0.953989
vt 0.671203 0.807286
vt 0.471707 0.954111
vt 0.293286 0.954111
vt 0.277036 0.919368
vt 0.471707 1.066299
vt 0.539121 1.066299
vt 0.416203 0.499701
vt 0.503703 0.379964
vt 0.587036 0.490475
vt 0.342661 0.825149
vt 0.412661 0.573898
vt 0.504328 0.790209
vt 0.370370 0.730145
vt 0.628078 0.606286
vt 0.670161 0.774310
vt 0.638286 0.740352
vt 0.741828 0.874025
vt 0.351203 0.685194
vt 0.333286 0.770188
g B
f 121/115/121 116/116/116 130/117/130 
f 117/118/117 123/119/123 125/120/125 
f 119/121/119 117/118/117 116/116/116 
f 119/121/119 116/116/116 118/122/118 
f 122/123/122 115/124/115 120/125/120 
f 117/118/117 125/120/125 135/126/135 
f 126/127/126 128/128/128 133/129/133 
f 116/116/116 117/118/117 128/128/128 
f 126/127/126 122/123/122 120/125/120 
f 126/127/126 120/125/120 132/130/132 
f 129/131/129 130/117/130 128/128/128 
f 132/130/132 128/128/128 126/127/126 
f 128/128/128 132/130/132 131/132/131 
f 128/128/128 131/132/131 129/131/129 
f 130/117/130 124/133/124 121/115/121 
f 130/117/130 116/116/116 128/128/128 
f 133/129/133 127/134/127 126/127/126 
f 135/126/135 128/128/128 117/118/117 
f 133/129/133 128/128/128 135/126/135 
f 135/126/135 134/135/134 133/129/133 
v -62.379578 417.421204 508.051270
v -62.379578 33.357376 485.724121
v -62.379578 33.275284 528.220947
v -62.379578 -41.786545 485.724121
v -62.379578 -41.786545 528.220947
v -62.379578 343.481323 455.518555
v -62.379578 33.357376 380.265381
v -62.379578 337.308716 563.210693
v -62.379578 33.275284 640.696533
v -62.379578 86.858719 357.938965
v -62.379578 56.521042 650.940430
v -62.379578 287.665253 565.443359
v -62.379578 213.200043 604.186279
v -62.379578 142.937454 507.657227
v -62.379578 153.575348 403.117065
v -62.379578 131.511566 402.460449
v -62.379578 176.295761 423.210815
v -62.379578 265.995483 429.646118
v -62.379578 183.125031 592.103760
v -62.379578 156.333313 615.480713
v -62.379578 119.560371 609.570801
vn 1.000000 0.000000 0.000000
vn 1.000000 0.000000 0.000000
vn 1.000000 0.000000 0.000000
vn 1.000000 0.000000 0.000000
vn 1.000000 0.000000 0.000000
vn 1.000000 0.000000 0.000000
vn 1.000000 0.000000 0.000000
vn 1.000000 0.000000 0.000000
vn 1.000000 0.000000 0.000000
vn 1.000000 0.000000 0.000000
vn 1.000000 0.000000 0.000000
vn 1.000000 0.000000 0.000000
vn 1.000000 0.000000 0.000000
vn 1.000000 0.000000 0.000000
vn 1.000000 0.000000 0.000000
vn 1.000000 0.000000 0.000000
vn 1.000000 0.000000 0.000000
vn 1.000000 0.000000 0.000000
vn 1.000000 0.000000 0.000000
vn 1.000000 0.000000 0.000000
vn 1.000000 0.000000 0.000000
vt 0.835719 0.800790
vt 0.967801 0.947492
vt 0.800510 0.947492
vt 1.229885 0.912872
vt 1.213635 0.947615
vt 1.035214 0.947615
vt 1.035214 1.059803
vt 0.967801 1.059803
vt 0.919885 0.483979
vt 1.003219 0.373468
vt 1.090719 0.493204
vt 1.164260 0.818653
vt 1.136552 0.723649
vt 1.002594 0.783713
vt 1.094260 0.567402
vt 0.878844 0.599790
vt 0.836760 0.767814
vt 0.868635 0.733856
vt 0.765093 0.867529
vt 1.155719 0.678698
vt 1.173635 0.763692
g B_F
f 151/136/151 137/137/137 142/138/142 
f 146/139/146 144/140/144 138/141/138 
f 137/137/137 138/141/138 140/142/140 
f 139/143/139 137/137/137 140/142/140 
f 141/144/141 136/145/136 143/146/143 
f 156/147/156 146/139/146 138/141/138 
f 154/148/154 149/149/149 147/150/147 
f 149/149/149 138/141/138 137/137/137 
f 141/144/141 143/146/143 147/150/147 
f 153/151/153 141/144/141 147/150/147 
f 149/149/149 151/136/151 150/152/150 
f 147/150/147 149/149/149 153/151/153 
f 152/153/152 153/151/153 149/149/149 
f 150/152/150 152/153/152 149/149/149 
f 142/138/142 145/154/145 151/136/151 
f 149/149/149 137/137/137 151/136/151 
f 147/150/147 148/155/148 154/148/154 
f 138/141/138 149/149/149 156/147/156 
f 156/147/156 149/149/149 154/148/154 
f 154/148/154 155/156/155 156/147/156 
