o tris.obj
v -0.000000 427.971313 0.805483
v -0.000000 42.800415 21.862476
v -0.000000 45.601353 -20.539440
v 0.000000 -32.175533 21.862476
v 0.000000 -32.175533 -20.539440
v -0.000000 319.995697 65.497482
v -0.000000 42.800415 131.016663
v -0.000000 316.457672 -67.768532
v -0.000000 45.601353 -149.536484
v -0.000000 94.478661 138.747925
v -0.000000 98.016701 -151.764130
v -0.000000 219.882385 -90.045059
v -0.000000 166.418732 -122.018417
v -0.000000 181.213776 -0.021698
v -0.000000 171.529221 112.802338
v -0.000000 131.300446 106.119377
v -0.000000 229.513702 94.063850
v -0.000000 251.397110 73.883942
vn 1.000000 0.000000 0.000000
vn 1.000000 0.000000 -0.000000
vn 1.000000 0.000000 -0.000000
vn 1.000000 0.000000 0.000000
vn 1.000000 0.000000 -0.000000
vn 1.000000 0.000000 0.000000
vn 1.000000 0.000000 0.000000
vn 1.000000 0.000000 -0.000000
vn 1.000000 0.000000 0.000000
vn 1.000000 0.000000 -0.000000
vn 1.000000 0.000000 -0.000000
vn 1.000000 0.000000 -0.000000
vn 1.000000 0.000000 -0.000000
vn 1.000000 0.000000 -0.000000
vn 1.000000 0.000000 -0.000000
vn 1.000000 0.000000 -0.000000
vn 1.000000 0.000000 -0.000000
vn 1.000000 0.000000 0.000000
vt 0.201874 0.123047
vt 0.016042 0.205208
vt 0.028333 0.123047
vt 0.269287 0.127500
vt 0.474375 0.127500
vt 0.477917 0.210833
vt 0.269287 0.003845
vt 0.201874 0.003845
vt 0.235352 0.735417
vt 0.132500 0.563750
vt 0.236667 0.343105
vt 0.430625 0.319583
vt 0.379792 0.404583
vt 0.344375 0.558125
vt 0.057292 0.327708
vt 0.119167 0.454688
vt 0.087083 0.419896
vt 0.067917 0.263750
g A
f 2/1/2 10/2/10 7/3/7 
f 3/4/3 9/5/9 11/6/11 
f 5/7/5 3/4/3 2/1/2 
f 5/7/5 2/1/2 4/8/4 
f 8/14/8 1/9/1 6/10/6 
f 14/11/14 3/4/3 11/6/11 
f 11/6/11 13/12/13 14/11/14 
f 13/12/13 12/13/12 14/11/14 
f 2/1/2 3/4/3 14/11/14 
f 12/13/12 8/14/8 14/11/14 
f 8/14/8 6/10/6 14/11/14 
f 15/15/15 16/18/16 14/11/14 
f 14/11/14 6/10/6 18/16/18 
f 14/11/14 18/16/18 17/17/17 
f 14/11/14 17/17/17 15/15/15 
f 16/18/16 10/2/10 2/1/2 
f 16/18/16 2/1/2 14/11/14 
v -0.000000 427.971313 0.805483
v -0.000000 42.800415 21.862476
v -0.000000 45.601353 -20.539440
v 0.000000 -32.175533 21.862476
v 0.000000 -32.175533 -20.539440
v -0.000000 319.995697 65.497482
v -0.000000 42.800415 131.016663
v -0.000000 316.457672 -67.768532
v -0.000000 45.601353 -149.536484
v -0.000000 94.478661 138.747925
v -0.000000 98.016701 -151.764130
v -0.000000 219.882385 -90.045059
v -0.000000 166.418732 -122.018417
v -0.000000 181.213776 -0.021698
v -0.000000 171.529221 112.802338
v -0.000000 131.300446 106.119377
v -0.000000 229.513702 94.063850
v -0.000000 251.397110 73.883942
vn -1.000000 -0.000000 0.000000
vn -1.000000 -0.000000 0.000000
vn -1.000000 -0.000000 0.000000
vn -1.000000 -0.000000 0.000000
vn -1.000000 -0.000000 0.000000
vn -1.000000 -0.000000 -0.000000
vn -1.000000 -0.000000 0.000000
vn -1.000000 -0.000000 0.000000
vn -1.000000 -0.000000 0.000000
vn -1.000000 -0.000000 0.000000
vn -1.000000 -0.000000 0.000000
vn -1.000000 -0.000000 0.000000
vn -1.000000 -0.000000 0.000000
vn -1.000000 -0.000000 0.000000
vn -1.000000 -0.000000 0.000000
vn -1.000000 -0.000000 0.000000
vn -1.000000 -0.000000 0.000000
vn -1.000000 -0.000000 -0.000000
vt 0.971667 0.123047
vt 0.983958 0.205208
vt 0.798126 0.123047
vt 0.522083 0.210833
vt 0.525625 0.127500
vt 0.730713 0.127500
vt 0.730713 0.003845
vt 0.798126 0.003845
vt 0.867500 0.563750
vt 0.764648 0.735417
vt 0.763333 0.343105
vt 0.569375 0.319583
vt 0.620208 0.404583
vt 0.655625 0.558125
vt 0.942708 0.327708
vt 0.880833 0.454688
vt 0.912917 0.419896
vt 0.932083 0.263750
g A_F
f 25/19/25 28/20/28 20/21/20 
f 29/22/29 27/23/27 21/24/21 
f 20/21/20 21/24/21 23/25/23 
f 22/26/22 20/21/20 23/25/23 
f 24/27/24 19/28/19 26/32/26 
f 29/22/29 21/24/21 32/29/32 
f 32/29/32 31/30/31 29/22/29 
f 32/29/32 30/31/30 31/30/31 
f 32/29/32 21/24/21 20/21/20 
f 32/29/32 26/32/26 30/31/30 
f 32/29/32 24/27/24 26/32/26 
f 32/29/32 34/36/34 33/33/33 
f 36/34/36 24/27/24 32/29/32 
f 35/35/35 36/34/36 32/29/32 
f 33/33/33 35/35/35 32/29/32 
f 20/21/20 28/20/28 34/36/34 
f 32/29/32 20/21/20 34/36/34 
