o tris.obj
v -0.000000 425.531769 -0.930389
v -0.000000 42.752792 21.322115
v -0.000000 42.670979 -21.032625
v 0.000000 -32.139736 21.322115
v 0.000000 -32.139736 -21.032625
v -0.000000 351.839264 51.426643
v -0.000000 42.752792 126.428085
v -0.000000 345.687286 -55.905270
v -0.000000 42.670979 -133.131882
v -0.000000 96.075150 148.679825
v -0.000000 65.838966 -143.341507
v -0.000000 296.209900 -58.130444
v -0.000000 221.993805 -96.743744
v -0.000000 151.966278 -0.537712
v -0.000000 162.568588 103.652786
v -0.000000 140.578629 104.307251
v -0.000000 185.212997 83.626221
v -0.000000 274.612640 77.212479
v -0.000000 192.019394 -84.701630
v -0.000000 165.317322 -108.000519
v -0.000000 128.667404 -102.110352
vn 1.000000 0.000000 0.000000
vn 1.000000 0.000000 -0.000000
vn 1.000000 0.000000 -0.000000
vn 1.000000 0.000000 0.000000
vn 1.000000 0.000000 -0.000000
vn 1.000000 0.000000 0.000000
vn 1.000000 0.000000 0.000000
vn 1.000000 0.000000 0.000000
vn 1.000000 0.000000 0.000000
vn 1.000000 0.000000 0.000000
vn 1.000000 0.000000 -0.000000
vn 1.000000 0.000000 0.000000
vn 1.000000 0.000000 0.000000
vn 1.000000 0.000000 -0.000000
vn 1.000000 0.000000 -0.000000
vn 1.000000 0.000000 -0.000000
vn 1.000000 0.000000 -0.000000
vn 1.000000 0.000000 0.000000
vn 1.000000 0.000000 -0.000000
vn 1.000000 0.000000 -0.000000
vn 1.000000 0.000000 -0.000000
vt 0.706411 0.953989
vt 0.293286 0.954111
vt 0.277036 0.919368
vt 0.471707 1.066299
vt 0.471707 0.954111
vt 0.539121 0.953989
vt 0.539121 1.066299
vt 0.416203 0.499701
vt 0.503703 0.379964
vt 0.587036 0.490475
vt 0.342661 0.825149
vt 0.504328 0.790209
vt 0.370370 0.730145
vt 0.412661 0.573898
vt 0.628078 0.606286
vt 0.670161 0.774310
vt 0.671203 0.807286
vt 0.638286 0.740352
vt 0.741828 0.874025
vt 0.351203 0.685194
vt 0.333286 0.770188
g B
f 7/1/7 2/6/2 16/17/16 
f 3/5/3 9/2/9 11/3/11 
f 5/4/5 3/5/3 2/6/2 
f 5/4/5 2/6/2 4/7/4 
f 8/8/8 1/9/1 6/10/6 
f 3/5/3 11/3/11 21/11/21 
f 12/14/12 14/12/14 19/13/19 
f 2/6/2 3/5/3 14/12/14 
f 12/14/12 8/8/8 6/10/6 
f 12/14/12 6/10/6 18/15/18 
f 15/16/15 16/17/16 14/12/14 
f 18/15/18 14/12/14 12/14/12 
f 14/12/14 18/15/18 17/18/17 
f 14/12/14 17/18/17 15/16/15 
f 16/17/16 10/19/10 7/1/7 
f 16/17/16 2/6/2 14/12/14 
f 19/13/19 13/20/13 12/14/12 
f 21/11/21 14/12/14 3/5/3 
f 19/13/19 14/12/14 21/11/21 
f 21/11/21 20/21/20 19/13/19 
v -0.000000 425.531769 -0.930389
v -0.000000 42.752792 21.322115
v -0.000000 42.670979 -21.032625
v 0.000000 -32.139736 21.322115
v 0.000000 -32.139736 -21.032625
v -0.000000 351.839264 51.426643
v -0.000000 42.752792 126.428085
v -0.000000 345.687286 -55.905270
v -0.000000 42.670979 -133.131882
v -0.000000 96.075150 148.679825
v -0.000000 65.838966 -143.341507
v -0.000000 296.209900 -58.130444
v -0.000000 221.993805 -96.743744
v -0.000000 151.966278 -0.537712
v -0.000000 162.568588 103.652786
v -0.000000 140.578629 104.307251
v -0.000000 185.212997 83.626221
v -0.000000 274.612640 77.212479
v -0.000000 192.019394 -84.701630
v -0.000000 165.317322 -108.000519
v -0.000000 128.667404 -102.110352
vn -1.000000 -0.000000 -0.000000
vn -1.000000 -0.000000 0.000000
vn -1.000000 -0.000000 0.000000
vn -1.000000 -0.000000 0.000000
vn -1.000000 -0.000000 0.000000
vn -1.000000 -0.000000 -0.000000
vn -1.000000 -0.000000 -0.000000
vn -1.000000 -0.000000 -0.000000
vn -1.000000 -0.000000 0.000000
vn -1.000000 -0.000000 -0.000000
vn -1.000000 -0.000000 0.000000
vn -1.000000 -0.000000 -0.000000
vn -1.000000 -0.000000 -0.000000
vn -1.000000 -0.000000 0.000000
vn -1.000000 -0.000000 0.000000
vn -1.000000 -0.000000 0.000000
vn -1.000000 -0.000000 0.000000
vn -1.000000 -0.000000 -0.000000
vn -1.000000 -0.000000 0.000000
vn -1.000000 -0.000000 0.000000
vn -1.000000 -0.000000 0.000000
vt 0.800510 0.947492
vt 1.229885 0.912872
vt 1.213635 0.947615
vt 0.967801 0.947492
vt 1.035214 0.947615
vt 1.035214 1.059803
vt 0.967801 1.059803
vt 0.919885 0.483979
vt 1.003219 0.373468
vt 1.090719 0.493204
vt 1.164260 0.818653
vt 1.136552 0.723649
vt 1.002594 0.783713
vt 1.094260 0.567402
vt 0.878844 0.599790
vt 0.835719 0.800790
vt 0.836760 0.767814
vt 0.868635 0.733856
vt 0.765093 0.867529
vt 1.155719 0.678698
vt 1.173635 0.763692
g B_F
f 37/37/37 23/25/23 28/22/28 
f 32/23/32 30/24/30 24/26/24 
f 23/25/23 24/26/24 26/27/26 
f 25/28/25 23/25/23 26/27/26 
f 27/29/27 22/30/22 29/31/29 
f 42/32/42 32/23/32 24/26/24 
f 40/33/40 35/34/35 33/35/33 
f 35/34/35 24/26/24 23/25/23 
f 27/29/27 29/31/29 33/35/33 
f 39/36/39 27/29/27 33/35/33 
f 35/34/35 37/37/37 36/38/36 
f 33/35/33 35/34/35 39/36/39 
f 38/39/38 39/36/39 35/34/35 
f 36/38/36 38/39/38 35/34/35 
f 28/22/28 31/40/31 37/37/37 
f 35/34/35 23/25/23 37/37/37 
f 33/35/33 34/41/34 40/33/40 
f 24/26/24 35/34/35 42/32/42 
f 42/32/42 35/34/35 40/33/40 
f 40/33/40 41/42/41 42/32/42 
